<svg width="85" height="16" viewBox="0 0 85 16" fill="none" xmlns="http://www.w3.org/2000/svg">
<g clip-path="url(#clip0_379_1248)">
<path d="M0.510065 15.2887C0.374048 15.2887 0.251632 15.2394 0.142818 15.1408C0.0476061 15.0423 0 14.9155 0 14.7606V1.02817C0 0.87324 0.0476061 0.746479 0.142818 0.647888C0.251632 0.549296 0.374048 0.5 0.510065 0.5H2.71355C2.93118 0.5 3.0944 0.56338 3.20321 0.690141C3.32563 0.802817 3.40044 0.894367 3.42764 0.964789L7.0185 7.64084L10.6094 0.964789C10.6502 0.894367 10.7182 0.802817 10.8134 0.690141C10.9222 0.56338 11.0922 0.5 11.3235 0.5H13.5065C13.6562 0.5 13.7786 0.549296 13.8738 0.647888C13.9826 0.746479 14.037 0.87324 14.037 1.02817V14.7606C14.037 14.9155 13.9826 15.0423 13.8738 15.1408C13.7786 15.2394 13.6562 15.2887 13.5065 15.2887H11.0786C10.929 15.2887 10.7998 15.2394 10.691 15.1408C10.5958 15.0423 10.5482 14.9155 10.5482 14.7606V6.83803L8.24266 11.2535C8.18825 11.3803 8.10664 11.493 7.99782 11.5915C7.88901 11.6901 7.73939 11.7394 7.54897 11.7394H6.48803C6.29761 11.7394 6.14799 11.6901 6.03917 11.5915C5.93036 11.493 5.84195 11.3803 5.77394 11.2535L3.46844 6.83803V14.7606C3.46844 14.9155 3.42084 15.0423 3.32563 15.1408C3.23041 15.2394 3.108 15.2887 2.95838 15.2887H0.510065Z" fill="#414141"/>
<path d="M19.8344 15.5C19.0999 15.5 18.4402 15.3592 17.8553 15.0775C17.284 14.7817 16.8284 14.3873 16.4883 13.8944C16.1483 13.4014 15.9783 12.8451 15.9783 12.2254C15.9783 11.2254 16.3727 10.4366 17.1616 9.85915C17.9505 9.26761 18.9979 8.8662 20.3036 8.65493L22.854 8.25352V7.95775C22.854 7.4507 22.7519 7.06338 22.5479 6.79577C22.3439 6.52817 21.9698 6.39437 21.4258 6.39437C21.0449 6.39437 20.7321 6.47183 20.4873 6.62676C20.256 6.78169 20.0724 6.99296 19.9364 7.26056C19.814 7.44366 19.6439 7.53521 19.4263 7.53521H17.1412C16.9916 7.53521 16.876 7.49296 16.7944 7.40845C16.7128 7.30986 16.6788 7.19718 16.6924 7.07042C16.6924 6.8169 16.7808 6.52817 16.9576 6.20423C17.148 5.8662 17.4337 5.53521 17.8145 5.21127C18.1954 4.88732 18.685 4.61972 19.2835 4.40845C19.882 4.19718 20.6029 4.09155 21.4462 4.09155C22.3303 4.09155 23.0852 4.19718 23.7109 4.40845C24.3365 4.61972 24.8398 4.91549 25.2207 5.29577C25.6151 5.67606 25.9075 6.12676 26.098 6.64789C26.2884 7.15493 26.3836 7.71831 26.3836 8.33803V14.7606C26.3836 14.9155 26.3292 15.0423 26.2204 15.1408C26.1252 15.2394 26.0096 15.2887 25.8735 15.2887H23.5068C23.3572 15.2887 23.2348 15.2394 23.1396 15.1408C23.0444 15.0423 22.9968 14.9155 22.9968 14.7606V14.0211C22.82 14.2887 22.5819 14.5352 22.2827 14.7606C21.9834 14.9859 21.6298 15.162 21.2217 15.2887C20.8273 15.4296 20.3648 15.5 19.8344 15.5ZM20.7933 13.0915C21.1877 13.0915 21.5414 13.007 21.8542 12.838C22.1807 12.6549 22.4323 12.3803 22.6091 12.0141C22.7995 11.6338 22.8948 11.162 22.8948 10.5986V10.3028L21.1605 10.6197C20.5213 10.7324 20.052 10.9085 19.7528 11.1479C19.4671 11.3732 19.3243 11.6408 19.3243 11.9507C19.3243 12.1901 19.3923 12.3944 19.5283 12.5634C19.6643 12.7324 19.8412 12.8662 20.0588 12.9648C20.2764 13.0493 20.5213 13.0915 20.7933 13.0915Z" fill="#414141"/>
<path d="M29.196 15.2887C29.0464 15.2887 28.9239 15.2394 28.8287 15.1408C28.7335 15.0423 28.6859 14.9155 28.6859 14.7606V4.83099C28.6859 4.67606 28.7335 4.5493 28.8287 4.4507C28.9239 4.35211 29.0464 4.30282 29.196 4.30282H36.0105C36.1465 4.30282 36.2621 4.35211 36.3573 4.4507C36.4661 4.5493 36.5205 4.67606 36.5205 4.83099V6.54225C36.5205 6.69718 36.4661 6.82394 36.3573 6.92253C36.2621 7.02113 36.1465 7.07042 36.0105 7.07042H32.1136V14.7606C32.1136 14.9155 32.0591 15.0423 31.9503 15.1408C31.8551 15.2394 31.7395 15.2887 31.6035 15.2887H29.196Z" fill="#414141"/>
<path d="M41.2332 15.5C40.4987 15.5 39.839 15.3592 39.2542 15.0775C38.6829 14.7817 38.2272 14.3873 37.8872 13.8944C37.5471 13.4014 37.3771 12.8451 37.3771 12.2254C37.3771 11.2254 37.7716 10.4366 38.5605 9.85915C39.3494 9.26761 40.3967 8.8662 41.7025 8.65493L44.2528 8.25352V7.95775C44.2528 7.4507 44.1508 7.06338 43.9468 6.79577C43.7427 6.52817 43.3687 6.39437 42.8246 6.39437C42.4438 6.39437 42.1309 6.47183 41.8861 6.62676C41.6549 6.78169 41.4712 6.99296 41.3352 7.26056C41.2128 7.44366 41.0428 7.53521 40.8252 7.53521H38.5401C38.3904 7.53521 38.2748 7.49296 38.1932 7.40845C38.1116 7.30986 38.0776 7.19718 38.0912 7.07042C38.0912 6.8169 38.1796 6.52817 38.3564 6.20423C38.5469 5.8662 38.8325 5.53521 39.2133 5.21127C39.5942 4.88732 40.0839 4.61972 40.6823 4.40845C41.2808 4.19718 42.0017 4.09155 42.845 4.09155C43.7291 4.09155 44.484 4.19718 45.1097 4.40845C45.7354 4.61972 46.2386 4.91549 46.6195 5.29577C47.0139 5.67606 47.3064 6.12676 47.4968 6.64789C47.6872 7.15493 47.7824 7.71831 47.7824 8.33803V14.7606C47.7824 14.9155 47.728 15.0423 47.6192 15.1408C47.524 15.2394 47.4084 15.2887 47.2724 15.2887H44.9057C44.7561 15.2887 44.6336 15.2394 44.5384 15.1408C44.4432 15.0423 44.3956 14.9155 44.3956 14.7606V14.0211C44.2188 14.2887 43.9808 14.5352 43.6815 14.7606C43.3823 14.9859 43.0286 15.162 42.6206 15.2887C42.2261 15.4296 41.7637 15.5 41.2332 15.5ZM42.1921 13.0915C42.5866 13.0915 42.9402 13.007 43.2531 12.838C43.5795 12.6549 43.8311 12.3803 44.008 12.0141C44.1984 11.6338 44.2936 11.162 44.2936 10.5986V10.3028L42.5594 10.6197C41.9201 10.7324 41.4508 10.9085 41.1516 11.1479C40.866 11.3732 40.7231 11.6408 40.7231 11.9507C40.7231 12.1901 40.7911 12.3944 40.9272 12.5634C41.0632 12.7324 41.24 12.8662 41.4576 12.9648C41.6753 13.0493 41.9201 13.0915 42.1921 13.0915Z" fill="#414141"/>
<path d="M54.5325 15.5C53.5804 15.5 52.7915 15.3944 52.1658 15.1831C51.5537 14.9718 51.0641 14.6972 50.6968 14.3592C50.3296 14.0211 50.0644 13.669 49.9011 13.3028C49.7515 12.9225 49.6563 12.5845 49.6155 12.2887C49.6019 12.1761 49.6359 12.0845 49.7175 12.0141C49.7991 11.9437 49.8875 11.9085 49.9827 11.9085H52.3494C52.4991 11.9085 52.6079 11.9366 52.6759 11.993C52.7575 12.0493 52.8255 12.1268 52.8799 12.2254C53.0023 12.507 53.1996 12.7113 53.4716 12.838C53.7572 12.9648 54.1245 13.0282 54.5733 13.0282C54.8862 13.0282 55.1582 12.9859 55.3894 12.9014C55.6343 12.8169 55.8179 12.6901 55.9403 12.5211C56.0627 12.3521 56.1239 12.1408 56.1239 11.8873C56.1239 11.5352 56.0219 11.2676 55.8179 11.0845C55.6139 10.8873 55.2602 10.7887 54.757 10.7887H53.6144C53.492 10.7887 53.39 10.7465 53.3084 10.662C53.2268 10.5634 53.1859 10.4507 53.1859 10.3239V9.11972C53.1859 8.99296 53.2268 8.88732 53.3084 8.80282C53.39 8.70423 53.492 8.65493 53.6144 8.65493H54.7161C55.1378 8.65493 55.4438 8.57747 55.6343 8.42254C55.8247 8.26761 55.9199 8.02817 55.9199 7.70423C55.9199 7.50704 55.8723 7.32394 55.7771 7.15493C55.6819 6.98592 55.5322 6.85211 55.3282 6.75352C55.1242 6.64085 54.8454 6.58451 54.4917 6.58451C53.9884 6.58451 53.628 6.66197 53.4104 6.8169C53.2064 6.95775 53.0363 7.1831 52.9003 7.49296C52.8459 7.59155 52.7779 7.66901 52.6963 7.72535C52.6283 7.78169 52.5195 7.80986 52.3698 7.80986H50.0848C49.9759 7.80986 49.8875 7.77465 49.8195 7.70423C49.7515 7.6338 49.7175 7.54225 49.7175 7.42958C49.7583 7.06338 49.8603 6.69014 50.0235 6.30986C50.2004 5.91549 50.4724 5.5493 50.8396 5.21127C51.2069 4.87324 51.6898 4.60563 52.2882 4.40845C52.8867 4.19718 53.6348 4.09155 54.5325 4.09155C55.6887 4.09155 56.6068 4.23944 57.2869 4.53521C57.9806 4.8169 58.477 5.19718 58.7763 5.67606C59.0755 6.14085 59.2251 6.65493 59.2251 7.21831C59.2251 7.69718 59.1299 8.1338 58.9395 8.52817C58.7491 8.92253 58.409 9.24648 57.9194 9.5C58.5314 9.73944 58.9531 10.1056 59.1843 10.5986C59.4156 11.0915 59.5312 11.6197 59.5312 12.1831C59.5312 12.8592 59.3271 13.4437 58.9191 13.9366C58.5246 14.4296 57.9534 14.8169 57.2053 15.0986C56.4572 15.3662 55.5663 15.5 54.5325 15.5Z" fill="#414141"/>
<path d="M61.9513 15.2887C61.8152 15.2887 61.6996 15.2394 61.6044 15.1408C61.5092 15.0423 61.4616 14.9225 61.4616 14.7817V4.83099C61.4616 4.67606 61.5092 4.5493 61.6044 4.4507C61.6996 4.35211 61.822 4.30282 61.9717 4.30282H64.3792C64.5152 4.30282 64.6308 4.35211 64.726 4.4507C64.8348 4.5493 64.8892 4.67606 64.8892 4.83099V12.5423L63.9711 12.0775L69.0106 4.64085C69.0786 4.54225 69.1602 4.46479 69.2554 4.40845C69.3506 4.33803 69.4594 4.30282 69.5818 4.30282H71.7649C71.9009 4.30282 72.0165 4.35211 72.1118 4.4507C72.207 4.5493 72.2546 4.66901 72.2546 4.80986V14.7606C72.2546 14.9155 72.207 15.0423 72.1118 15.1408C72.0165 15.2394 71.8941 15.2887 71.7445 15.2887H69.337C69.1874 15.2887 69.065 15.2394 68.9698 15.1408C68.8745 15.0423 68.8269 14.9155 68.8269 14.7606V7.28169L69.7655 7.47183L64.6852 14.9507C64.6308 15.0493 64.556 15.1338 64.4608 15.2042C64.3656 15.2606 64.25 15.2887 64.1139 15.2887H61.9513Z" fill="#414141"/>
<path d="M74.9823 15.2887C74.8327 15.2887 74.7103 15.2394 74.6151 15.1408C74.5199 15.0423 74.4723 14.9155 74.4723 14.7606V4.83099C74.4723 4.67606 74.5199 4.5493 74.6151 4.4507C74.7103 4.35211 74.8327 4.30282 74.9823 4.30282H77.3898C77.5258 4.30282 77.6415 4.35211 77.7367 4.4507C77.8455 4.5493 77.8999 4.67606 77.8999 4.83099V8.33803H81.5724V4.83099C81.5724 4.67606 81.62 4.5493 81.7152 4.4507C81.8104 4.35211 81.9328 4.30282 82.0824 4.30282H84.4899C84.6259 4.30282 84.7416 4.35211 84.8368 4.4507C84.9456 4.5493 85 4.67606 85 4.83099V14.7606C85 14.9155 84.9456 15.0423 84.8368 15.1408C84.7416 15.2394 84.6259 15.2887 84.4899 15.2887H82.0824C81.9328 15.2887 81.8104 15.2394 81.7152 15.1408C81.62 15.0423 81.5724 14.9155 81.5724 14.7606V11.1056H77.8999V14.7606C77.8999 14.9155 77.8455 15.0423 77.7367 15.1408C77.6415 15.2394 77.5258 15.2887 77.3898 15.2887H74.9823Z" fill="#414141"/>
</g>
<defs>
<clipPath id="clip0_379_1248">
<rect width="85" height="15" fill="white" transform="translate(0 0.5)"/>
</clipPath>
</defs>
</svg>
